<?xml version="1.0" standalone="yes"?>
<!-- SVG graphic -->
<svg xmlns='http://www.w3.org/2000/svg' xmlns:xlink='http://www.w3.org/1999/xlink'
 version="1.1">
<rect x="0" y="0" width="6" height="200" stroke="black" stroke-width="1" fill="blue" tooltip="enable"><title>(0,3218)</title></rect><rect x="6" y="42.6352" width="6" height="157.365" stroke="black" stroke-width="1" fill="blue" tooltip="enable"><title>(0.0391048,2532)</title></rect><rect x="12" y="57.7377" width="6" height="142.262" stroke="black" stroke-width="1" fill="blue" tooltip="enable"><title>(0.0782095,2289)</title></rect><rect x="18" y="74.0211" width="6" height="125.979" stroke="black" stroke-width="1" fill="blue" tooltip="enable"><title>(0.117314,2027)</title></rect><rect x="24" y="76.6314" width="6" height="123.369" stroke="black" stroke-width="1" fill="blue" tooltip="enable"><title>(0.156419,1985)</title></rect><rect x="30" y="87.0106" width="6" height="112.989" stroke="black" stroke-width="1" fill="blue" tooltip="enable"><title>(0.195524,1818)</title></rect><rect x="36" y="89.1237" width="6" height="110.876" stroke="black" stroke-width="1" fill="blue" tooltip="enable"><title>(0.234629,1784)</title></rect><rect x="42" y="99.6271" width="6" height="100.373" stroke="black" stroke-width="1" fill="blue" tooltip="enable"><title>(0.273733,1615)</title></rect><rect x="48" y="109.509" width="6" height="90.491" stroke="black" stroke-width="1" fill="blue" tooltip="enable"><title>(0.312838,1456)</title></rect><rect x="54" y="109.074" width="6" height="90.926" stroke="black" stroke-width="1" fill="blue" tooltip="enable"><title>(0.351943,1463)</title></rect><rect x="60" y="116.718" width="6" height="83.2815" stroke="black" stroke-width="1" fill="blue" tooltip="enable"><title>(0.391048,1340)</title></rect><rect x="66" y="129.086" width="6" height="70.9136" stroke="black" stroke-width="1" fill="blue" tooltip="enable"><title>(0.430152,1141)</title></rect><rect x="72" y="127.843" width="6" height="72.1566" stroke="black" stroke-width="1" fill="blue" tooltip="enable"><title>(0.469257,1161)</title></rect><rect x="78" y="137.228" width="6" height="62.7719" stroke="black" stroke-width="1" fill="blue" tooltip="enable"><title>(0.508362,1010)</title></rect><rect x="84" y="140.398" width="6" height="59.6022" stroke="black" stroke-width="1" fill="blue" tooltip="enable"><title>(0.547467,959)</title></rect><rect x="90" y="149.969" width="6" height="50.0311" stroke="black" stroke-width="1" fill="blue" tooltip="enable"><title>(0.586572,805)</title></rect><rect x="96" y="151.647" width="6" height="48.353" stroke="black" stroke-width="1" fill="blue" tooltip="enable"><title>(0.625676,778)</title></rect><rect x="102" y="155.687" width="6" height="44.3132" stroke="black" stroke-width="1" fill="blue" tooltip="enable"><title>(0.664781,713)</title></rect><rect x="108" y="157.862" width="6" height="42.138" stroke="black" stroke-width="1" fill="blue" tooltip="enable"><title>(0.703886,678)</title></rect><rect x="114" y="162.523" width="6" height="37.4767" stroke="black" stroke-width="1" fill="blue" tooltip="enable"><title>(0.742991,603)</title></rect><rect x="120" y="167.185" width="6" height="32.8154" stroke="black" stroke-width="1" fill="blue" tooltip="enable"><title>(0.782095,528)</title></rect><rect x="126" y="168.179" width="6" height="31.821" stroke="black" stroke-width="1" fill="blue" tooltip="enable"><title>(0.8212,512)</title></rect><rect x="132" y="168.303" width="6" height="31.6967" stroke="black" stroke-width="1" fill="blue" tooltip="enable"><title>(0.860305,510)</title></rect><rect x="138" y="171.908" width="6" height="28.092" stroke="black" stroke-width="1" fill="blue" tooltip="enable"><title>(0.89941,452)</title></rect><rect x="144" y="173.337" width="6" height="26.6625" stroke="black" stroke-width="1" fill="blue" tooltip="enable"><title>(0.938514,429)</title></rect><rect x="150" y="174.643" width="6" height="25.3574" stroke="black" stroke-width="1" fill="blue" tooltip="enable"><title>(0.977619,408)</title></rect><rect x="156" y="175.637" width="6" height="24.363" stroke="black" stroke-width="1" fill="blue" tooltip="enable"><title>(1.01672,392)</title></rect><rect x="162" y="177.315" width="6" height="22.6849" stroke="black" stroke-width="1" fill="blue" tooltip="enable"><title>(1.05583,365)</title></rect><rect x="168" y="180.733" width="6" height="19.2666" stroke="black" stroke-width="1" fill="blue" tooltip="enable"><title>(1.09493,310)</title></rect><rect x="174" y="181.044" width="6" height="18.9559" stroke="black" stroke-width="1" fill="blue" tooltip="enable"><title>(1.13404,305)</title></rect><rect x="180" y="182.536" width="6" height="17.4643" stroke="black" stroke-width="1" fill="blue" tooltip="enable"><title>(1.17314,281)</title></rect><rect x="186" y="184.152" width="6" height="15.8484" stroke="black" stroke-width="1" fill="blue" tooltip="enable"><title>(1.21225,255)</title></rect><rect x="192" y="186.948" width="6" height="13.0516" stroke="black" stroke-width="1" fill="blue" tooltip="enable"><title>(1.25135,210)</title></rect><rect x="198" y="185.519" width="6" height="14.481" stroke="black" stroke-width="1" fill="blue" tooltip="enable"><title>(1.29046,233)</title></rect><rect x="204" y="183.468" width="6" height="16.532" stroke="black" stroke-width="1" fill="blue" tooltip="enable"><title>(1.32956,266)</title></rect><rect x="210" y="186.265" width="6" height="13.7352" stroke="black" stroke-width="1" fill="blue" tooltip="enable"><title>(1.36867,221)</title></rect><rect x="216" y="187.819" width="6" height="12.1815" stroke="black" stroke-width="1" fill="blue" tooltip="enable"><title>(1.40777,196)</title></rect><rect x="222" y="189.062" width="6" height="10.9385" stroke="black" stroke-width="1" fill="blue" tooltip="enable"><title>(1.44688,176)</title></rect><rect x="228" y="188.129" width="6" height="11.8707" stroke="black" stroke-width="1" fill="blue" tooltip="enable"><title>(1.48598,191)</title></rect><rect x="234" y="189.683" width="6" height="10.317" stroke="black" stroke-width="1" fill="blue" tooltip="enable"><title>(1.52509,166)</title></rect><rect x="240" y="190.367" width="6" height="9.63331" stroke="black" stroke-width="1" fill="blue" tooltip="enable"><title>(1.56419,155)</title></rect><rect x="246" y="191.237" width="6" height="8.76321" stroke="black" stroke-width="1" fill="blue" tooltip="enable"><title>(1.6033,141)</title></rect><rect x="252" y="191.983" width="6" height="8.0174" stroke="black" stroke-width="1" fill="blue" tooltip="enable"><title>(1.6424,129)</title></rect><rect x="258" y="193.35" width="6" height="6.65009" stroke="black" stroke-width="1" fill="blue" tooltip="enable"><title>(1.6815,107)</title></rect><rect x="264" y="192.48" width="6" height="7.5202" stroke="black" stroke-width="1" fill="blue" tooltip="enable"><title>(1.72061,121)</title></rect><rect x="270" y="193.288" width="6" height="6.71224" stroke="black" stroke-width="1" fill="blue" tooltip="enable"><title>(1.75971,108)</title></rect><rect x="276" y="194.096" width="6" height="5.90429" stroke="black" stroke-width="1" fill="blue" tooltip="enable"><title>(1.79882,95)</title></rect><rect x="282" y="194.469" width="6" height="5.53139" stroke="black" stroke-width="1" fill="blue" tooltip="enable"><title>(1.83792,89)</title></rect><rect x="288" y="193.661" width="6" height="6.33934" stroke="black" stroke-width="1" fill="blue" tooltip="enable"><title>(1.87703,102)</title></rect><rect x="294" y="195.836" width="6" height="4.16408" stroke="black" stroke-width="1" fill="blue" tooltip="enable"><title>(1.91613,67)</title></rect><rect x="300" y="194.22" width="6" height="5.77999" stroke="black" stroke-width="1" fill="blue" tooltip="enable"><title>(1.95524,93)</title></rect><rect x="306" y="196.147" width="6" height="3.85333" stroke="black" stroke-width="1" fill="blue" tooltip="enable"><title>(1.99434,62)</title></rect><rect x="312" y="197.203" width="6" height="2.79677" stroke="black" stroke-width="1" fill="blue" tooltip="enable"><title>(2.03345,45)</title></rect><rect x="318" y="197.576" width="6" height="2.42387" stroke="black" stroke-width="1" fill="blue" tooltip="enable"><title>(2.07255,39)</title></rect><rect x="324" y="197.7" width="6" height="2.29956" stroke="black" stroke-width="1" fill="blue" tooltip="enable"><title>(2.11166,37)</title></rect><rect x="330" y="197.763" width="6" height="2.23741" stroke="black" stroke-width="1" fill="blue" tooltip="enable"><title>(2.15076,36)</title></rect><rect x="336" y="198.011" width="6" height="1.98881" stroke="black" stroke-width="1" fill="blue" tooltip="enable"><title>(2.18987,32)</title></rect><rect x="342" y="198.135" width="6" height="1.86451" stroke="black" stroke-width="1" fill="blue" tooltip="enable"><title>(2.22897,30)</title></rect><rect x="348" y="198.198" width="6" height="1.80236" stroke="black" stroke-width="1" fill="blue" tooltip="enable"><title>(2.26808,29)</title></rect><rect x="354" y="197.887" width="6" height="2.11311" stroke="black" stroke-width="1" fill="blue" tooltip="enable"><title>(2.30718,34)</title></rect><rect x="360" y="198.011" width="6" height="1.98881" stroke="black" stroke-width="1" fill="blue" tooltip="enable"><title>(2.34629,32)</title></rect><rect x="366" y="198.446" width="6" height="1.55376" stroke="black" stroke-width="1" fill="blue" tooltip="enable"><title>(2.38539,25)</title></rect><rect x="372" y="198.695" width="6" height="1.30516" stroke="black" stroke-width="1" fill="blue" tooltip="enable"><title>(2.4245,21)</title></rect><rect x="378" y="198.633" width="6" height="1.36731" stroke="black" stroke-width="1" fill="blue" tooltip="enable"><title>(2.4636,22)</title></rect><rect x="384" y="198.571" width="6" height="1.42946" stroke="black" stroke-width="1" fill="blue" tooltip="enable"><title>(2.50271,23)</title></rect><rect x="390" y="198.757" width="6" height="1.24301" stroke="black" stroke-width="1" fill="blue" tooltip="enable"><title>(2.54181,20)</title></rect><rect x="396" y="199.316" width="6" height="0.683654" stroke="black" stroke-width="1" fill="blue" tooltip="enable"><title>(2.58091,11)</title></rect><rect x="402" y="199.316" width="6" height="0.683654" stroke="black" stroke-width="1" fill="blue" tooltip="enable"><title>(2.62002,11)</title></rect><rect x="408" y="199.254" width="6" height="0.745805" stroke="black" stroke-width="1" fill="blue" tooltip="enable"><title>(2.65912,12)</title></rect><rect x="414" y="199.316" width="6" height="0.683654" stroke="black" stroke-width="1" fill="blue" tooltip="enable"><title>(2.69823,11)</title></rect><rect x="420" y="199.565" width="6" height="0.435053" stroke="black" stroke-width="1" fill="blue" tooltip="enable"><title>(2.73733,7)</title></rect><rect x="426" y="199.254" width="6" height="0.745805" stroke="black" stroke-width="1" fill="blue" tooltip="enable"><title>(2.77644,12)</title></rect><rect x="432" y="198.943" width="6" height="1.05656" stroke="black" stroke-width="1" fill="blue" tooltip="enable"><title>(2.81554,17)</title></rect><rect x="438" y="199.441" width="6" height="0.559354" stroke="black" stroke-width="1" fill="blue" tooltip="enable"><title>(2.85465,9)</title></rect><rect x="444" y="199.441" width="6" height="0.559354" stroke="black" stroke-width="1" fill="blue" tooltip="enable"><title>(2.89375,9)</title></rect><rect x="450" y="199.316" width="6" height="0.683654" stroke="black" stroke-width="1" fill="blue" tooltip="enable"><title>(2.93286,11)</title></rect><rect x="456" y="199.627" width="6" height="0.372902" stroke="black" stroke-width="1" fill="blue" tooltip="enable"><title>(2.97196,6)</title></rect><rect x="462" y="199.503" width="6" height="0.497203" stroke="black" stroke-width="1" fill="blue" tooltip="enable"><title>(3.01107,8)</title></rect><rect x="468" y="199.565" width="6" height="0.435053" stroke="black" stroke-width="1" fill="blue" tooltip="enable"><title>(3.05017,7)</title></rect><rect x="474" y="199.814" width="6" height="0.186451" stroke="black" stroke-width="1" fill="blue" tooltip="enable"><title>(3.08928,3)</title></rect><rect x="480" y="199.565" width="6" height="0.435053" stroke="black" stroke-width="1" fill="blue" tooltip="enable"><title>(3.12838,7)</title></rect><rect x="486" y="199.938" width="6" height="0.0621504" stroke="black" stroke-width="1" fill="blue" tooltip="enable"><title>(3.16749,1)</title></rect><rect x="492" y="199.627" width="6" height="0.372902" stroke="black" stroke-width="1" fill="blue" tooltip="enable"><title>(3.20659,6)</title></rect><rect x="498" y="199.689" width="6" height="0.310752" stroke="black" stroke-width="1" fill="blue" tooltip="enable"><title>(3.2457,5)</title></rect><rect x="504" y="200" width="6" height="0" stroke="black" stroke-width="1" fill="blue" tooltip="enable"><title>(3.2848,0)</title></rect><rect x="510" y="199.751" width="6" height="0.248602" stroke="black" stroke-width="1" fill="blue" tooltip="enable"><title>(3.32391,4)</title></rect><rect x="516" y="199.751" width="6" height="0.248602" stroke="black" stroke-width="1" fill="blue" tooltip="enable"><title>(3.36301,4)</title></rect><rect x="522" y="199.876" width="6" height="0.124301" stroke="black" stroke-width="1" fill="blue" tooltip="enable"><title>(3.40211,2)</title></rect><rect x="528" y="199.876" width="6" height="0.124301" stroke="black" stroke-width="1" fill="blue" tooltip="enable"><title>(3.44122,2)</title></rect><rect x="534" y="199.876" width="6" height="0.124301" stroke="black" stroke-width="1" fill="blue" tooltip="enable"><title>(3.48032,2)</title></rect><rect x="540" y="199.876" width="6" height="0.124301" stroke="black" stroke-width="1" fill="blue" tooltip="enable"><title>(3.51943,2)</title></rect><rect x="546" y="199.876" width="6" height="0.124301" stroke="black" stroke-width="1" fill="blue" tooltip="enable"><title>(3.55853,2)</title></rect><rect x="552" y="199.938" width="6" height="0.0621504" stroke="black" stroke-width="1" fill="blue" tooltip="enable"><title>(3.59764,1)</title></rect><rect x="558" y="199.938" width="6" height="0.0621504" stroke="black" stroke-width="1" fill="blue" tooltip="enable"><title>(3.63674,1)</title></rect><rect x="564" y="199.938" width="6" height="0.0621504" stroke="black" stroke-width="1" fill="blue" tooltip="enable"><title>(3.67585,1)</title></rect><rect x="570" y="200" width="6" height="0" stroke="black" stroke-width="1" fill="blue" tooltip="enable"><title>(3.71495,0)</title></rect><rect x="576" y="199.938" width="6" height="0.0621504" stroke="black" stroke-width="1" fill="blue" tooltip="enable"><title>(3.75406,1)</title></rect><rect x="582" y="199.876" width="6" height="0.124301" stroke="black" stroke-width="1" fill="blue" tooltip="enable"><title>(3.79316,2)</title></rect><rect x="588" y="200" width="6" height="0" stroke="black" stroke-width="1" fill="blue" tooltip="enable"><title>(3.83227,0)</title></rect><rect x="594" y="199.938" width="6" height="0.0621504" stroke="black" stroke-width="1" fill="blue" tooltip="enable"><title>(3.87137,1)</title></rect><text x="30" y="240" font-size="20" fill="black">0</text>
<text x="600" y="240" font-size="20" fill="black">3.91048</text>
<polyline points="0,220,600,220" stroke="black" stroke-width="1" fill="none"/>
<text x="720" y="20" font-size="20" fill="black">3218</text>
<text x="720" y="200" font-size="20" fill="black">0</text>
<polyline points="660,0,660,200" stroke="black" stroke-width="1" fill="none"/>
</svg>