<?xml version="1.0" standalone="yes"?>
<!-- SVG graphic -->
<svg xmlns='http://www.w3.org/2000/svg' xmlns:xlink='http://www.w3.org/1999/xlink'
 version="1.1">
<rect x="0" y="0" width="6" height="200" stroke="black" stroke-width="1" fill="blue" tooltip="enable"><title>(0,3241)</title></rect><rect x="6" y="40.1728" width="6" height="159.827" stroke="black" stroke-width="1" fill="blue" tooltip="enable"><title>(0.0395632,2590)</title></rect><rect x="12" y="57.6365" width="6" height="142.363" stroke="black" stroke-width="1" fill="blue" tooltip="enable"><title>(0.0791265,2307)</title></rect><rect x="18" y="68.2505" width="6" height="131.749" stroke="black" stroke-width="1" fill="blue" tooltip="enable"><title>(0.11869,2135)</title></rect><rect x="24" y="78.3709" width="6" height="121.629" stroke="black" stroke-width="1" fill="blue" tooltip="enable"><title>(0.158253,1971)</title></rect><rect x="30" y="83.9247" width="6" height="116.075" stroke="black" stroke-width="1" fill="blue" tooltip="enable"><title>(0.197816,1881)</title></rect><rect x="36" y="90.1574" width="6" height="109.843" stroke="black" stroke-width="1" fill="blue" tooltip="enable"><title>(0.237379,1780)</title></rect><rect x="42" y="97.8093" width="6" height="102.191" stroke="black" stroke-width="1" fill="blue" tooltip="enable"><title>(0.276943,1656)</title></rect><rect x="48" y="108.979" width="6" height="91.0213" stroke="black" stroke-width="1" fill="blue" tooltip="enable"><title>(0.316506,1475)</title></rect><rect x="54" y="109.472" width="6" height="90.5276" stroke="black" stroke-width="1" fill="blue" tooltip="enable"><title>(0.356069,1467)</title></rect><rect x="60" y="120.025" width="6" height="79.9753" stroke="black" stroke-width="1" fill="blue" tooltip="enable"><title>(0.395632,1296)</title></rect><rect x="66" y="128.602" width="6" height="71.3977" stroke="black" stroke-width="1" fill="blue" tooltip="enable"><title>(0.435196,1157)</title></rect><rect x="72" y="127.368" width="6" height="72.6319" stroke="black" stroke-width="1" fill="blue" tooltip="enable"><title>(0.474759,1177)</title></rect><rect x="78" y="135.329" width="6" height="64.6714" stroke="black" stroke-width="1" fill="blue" tooltip="enable"><title>(0.514322,1048)</title></rect><rect x="84" y="143.598" width="6" height="56.4023" stroke="black" stroke-width="1" fill="blue" tooltip="enable"><title>(0.553885,914)</title></rect><rect x="90" y="151.311" width="6" height="48.6887" stroke="black" stroke-width="1" fill="blue" tooltip="enable"><title>(0.593449,789)</title></rect><rect x="96" y="151.435" width="6" height="48.5653" stroke="black" stroke-width="1" fill="blue" tooltip="enable"><title>(0.633012,787)</title></rect><rect x="102" y="155.199" width="6" height="44.801" stroke="black" stroke-width="1" fill="blue" tooltip="enable"><title>(0.672575,726)</title></rect><rect x="108" y="159.148" width="6" height="40.8516" stroke="black" stroke-width="1" fill="blue" tooltip="enable"><title>(0.712138,662)</title></rect><rect x="114" y="162.481" width="6" height="37.5193" stroke="black" stroke-width="1" fill="blue" tooltip="enable"><title>(0.751701,608)</title></rect><rect x="120" y="167.849" width="6" height="32.1506" stroke="black" stroke-width="1" fill="blue" tooltip="enable"><title>(0.791265,521)</title></rect><rect x="126" y="168.713" width="6" height="31.2866" stroke="black" stroke-width="1" fill="blue" tooltip="enable"><title>(0.830828,507)</title></rect><rect x="132" y="168.652" width="6" height="31.3483" stroke="black" stroke-width="1" fill="blue" tooltip="enable"><title>(0.870391,508)</title></rect><rect x="138" y="170.935" width="6" height="29.0651" stroke="black" stroke-width="1" fill="blue" tooltip="enable"><title>(0.909954,471)</title></rect><rect x="144" y="172.354" width="6" height="27.6458" stroke="black" stroke-width="1" fill="blue" tooltip="enable"><title>(0.949518,448)</title></rect><rect x="150" y="174.823" width="6" height="25.1774" stroke="black" stroke-width="1" fill="blue" tooltip="enable"><title>(0.989081,408)</title></rect><rect x="156" y="174.267" width="6" height="25.7328" stroke="black" stroke-width="1" fill="blue" tooltip="enable"><title>(1.02864,417)</title></rect><rect x="162" y="179.821" width="6" height="20.179" stroke="black" stroke-width="1" fill="blue" tooltip="enable"><title>(1.06821,327)</title></rect><rect x="168" y="179.759" width="6" height="20.2407" stroke="black" stroke-width="1" fill="blue" tooltip="enable"><title>(1.10777,328)</title></rect><rect x="174" y="182.536" width="6" height="17.4637" stroke="black" stroke-width="1" fill="blue" tooltip="enable"><title>(1.14733,283)</title></rect><rect x="180" y="183.585" width="6" height="16.4147" stroke="black" stroke-width="1" fill="blue" tooltip="enable"><title>(1.1869,266)</title></rect><rect x="186" y="183.338" width="6" height="16.6615" stroke="black" stroke-width="1" fill="blue" tooltip="enable"><title>(1.22646,270)</title></rect><rect x="192" y="185.251" width="6" height="14.7485" stroke="black" stroke-width="1" fill="blue" tooltip="enable"><title>(1.26602,239)</title></rect><rect x="198" y="183.524" width="6" height="16.4764" stroke="black" stroke-width="1" fill="blue" tooltip="enable"><title>(1.30559,267)</title></rect><rect x="204" y="186.609" width="6" height="13.3909" stroke="black" stroke-width="1" fill="blue" tooltip="enable"><title>(1.34515,217)</title></rect><rect x="210" y="186.856" width="6" height="13.1441" stroke="black" stroke-width="1" fill="blue" tooltip="enable"><title>(1.38471,213)</title></rect><rect x="216" y="188.707" width="6" height="11.2928" stroke="black" stroke-width="1" fill="blue" tooltip="enable"><title>(1.42428,183)</title></rect><rect x="222" y="186.486" width="6" height="13.5143" stroke="black" stroke-width="1" fill="blue" tooltip="enable"><title>(1.46384,219)</title></rect><rect x="228" y="189.695" width="6" height="10.3055" stroke="black" stroke-width="1" fill="blue" tooltip="enable"><title>(1.5034,167)</title></rect><rect x="234" y="188.769" width="6" height="11.2311" stroke="black" stroke-width="1" fill="blue" tooltip="enable"><title>(1.54297,182)</title></rect><rect x="240" y="191.731" width="6" height="8.26905" stroke="black" stroke-width="1" fill="blue" tooltip="enable"><title>(1.58253,134)</title></rect><rect x="246" y="191.361" width="6" height="8.63931" stroke="black" stroke-width="1" fill="blue" tooltip="enable"><title>(1.62209,140)</title></rect><rect x="252" y="192.842" width="6" height="7.15828" stroke="black" stroke-width="1" fill="blue" tooltip="enable"><title>(1.66166,116)</title></rect><rect x="258" y="192.965" width="6" height="7.03487" stroke="black" stroke-width="1" fill="blue" tooltip="enable"><title>(1.70122,114)</title></rect><rect x="264" y="193.089" width="6" height="6.91145" stroke="black" stroke-width="1" fill="blue" tooltip="enable"><title>(1.74078,112)</title></rect><rect x="270" y="192.965" width="6" height="7.03487" stroke="black" stroke-width="1" fill="blue" tooltip="enable"><title>(1.78035,114)</title></rect><rect x="276" y="195.495" width="6" height="4.50478" stroke="black" stroke-width="1" fill="blue" tooltip="enable"><title>(1.81991,73)</title></rect><rect x="282" y="194.199" width="6" height="5.80068" stroke="black" stroke-width="1" fill="blue" tooltip="enable"><title>(1.85947,94)</title></rect><rect x="288" y="194.384" width="6" height="5.61555" stroke="black" stroke-width="1" fill="blue" tooltip="enable"><title>(1.89904,91)</title></rect><rect x="294" y="195.865" width="6" height="4.13453" stroke="black" stroke-width="1" fill="blue" tooltip="enable"><title>(1.9386,67)</title></rect><rect x="300" y="194.755" width="6" height="5.24529" stroke="black" stroke-width="1" fill="blue" tooltip="enable"><title>(1.97816,85)</title></rect><rect x="306" y="196.791" width="6" height="3.20889" stroke="black" stroke-width="1" fill="blue" tooltip="enable"><title>(2.01772,52)</title></rect><rect x="312" y="197.532" width="6" height="2.46837" stroke="black" stroke-width="1" fill="blue" tooltip="enable"><title>(2.05729,40)</title></rect><rect x="318" y="197.346" width="6" height="2.6535" stroke="black" stroke-width="1" fill="blue" tooltip="enable"><title>(2.09685,43)</title></rect><rect x="324" y="197.84" width="6" height="2.15983" stroke="black" stroke-width="1" fill="blue" tooltip="enable"><title>(2.13641,35)</title></rect><rect x="330" y="197.84" width="6" height="2.15983" stroke="black" stroke-width="1" fill="blue" tooltip="enable"><title>(2.17598,35)</title></rect><rect x="336" y="198.457" width="6" height="1.54273" stroke="black" stroke-width="1" fill="blue" tooltip="enable"><title>(2.21554,25)</title></rect><rect x="342" y="197.717" width="6" height="2.28325" stroke="black" stroke-width="1" fill="blue" tooltip="enable"><title>(2.2551,37)</title></rect><rect x="348" y="198.272" width="6" height="1.72786" stroke="black" stroke-width="1" fill="blue" tooltip="enable"><title>(2.29467,28)</title></rect><rect x="354" y="198.149" width="6" height="1.85128" stroke="black" stroke-width="1" fill="blue" tooltip="enable"><title>(2.33423,30)</title></rect><rect x="360" y="197.346" width="6" height="2.6535" stroke="black" stroke-width="1" fill="blue" tooltip="enable"><title>(2.37379,43)</title></rect><rect x="366" y="198.272" width="6" height="1.72786" stroke="black" stroke-width="1" fill="blue" tooltip="enable"><title>(2.41336,28)</title></rect><rect x="372" y="198.642" width="6" height="1.35761" stroke="black" stroke-width="1" fill="blue" tooltip="enable"><title>(2.45292,22)</title></rect><rect x="378" y="198.766" width="6" height="1.23419" stroke="black" stroke-width="1" fill="blue" tooltip="enable"><title>(2.49248,20)</title></rect><rect x="384" y="199.198" width="6" height="0.802222" stroke="black" stroke-width="1" fill="blue" tooltip="enable"><title>(2.53205,13)</title></rect><rect x="390" y="199.136" width="6" height="0.863931" stroke="black" stroke-width="1" fill="blue" tooltip="enable"><title>(2.57161,14)</title></rect><rect x="396" y="199.136" width="6" height="0.863931" stroke="black" stroke-width="1" fill="blue" tooltip="enable"><title>(2.61117,14)</title></rect><rect x="402" y="199.506" width="6" height="0.493675" stroke="black" stroke-width="1" fill="blue" tooltip="enable"><title>(2.65074,8)</title></rect><rect x="408" y="199.013" width="6" height="0.98735" stroke="black" stroke-width="1" fill="blue" tooltip="enable"><title>(2.6903,16)</title></rect><rect x="414" y="199.445" width="6" height="0.555384" stroke="black" stroke-width="1" fill="blue" tooltip="enable"><title>(2.72986,9)</title></rect><rect x="420" y="199.383" width="6" height="0.617094" stroke="black" stroke-width="1" fill="blue" tooltip="enable"><title>(2.76943,10)</title></rect><rect x="426" y="199.074" width="6" height="0.92564" stroke="black" stroke-width="1" fill="blue" tooltip="enable"><title>(2.80899,15)</title></rect><rect x="432" y="199.259" width="6" height="0.740512" stroke="black" stroke-width="1" fill="blue" tooltip="enable"><title>(2.84855,12)</title></rect><rect x="438" y="199.259" width="6" height="0.740512" stroke="black" stroke-width="1" fill="blue" tooltip="enable"><title>(2.88812,12)</title></rect><rect x="444" y="199.445" width="6" height="0.555384" stroke="black" stroke-width="1" fill="blue" tooltip="enable"><title>(2.92768,9)</title></rect><rect x="450" y="199.691" width="6" height="0.308547" stroke="black" stroke-width="1" fill="blue" tooltip="enable"><title>(2.96724,5)</title></rect><rect x="456" y="199.63" width="6" height="0.370256" stroke="black" stroke-width="1" fill="blue" tooltip="enable"><title>(3.00681,6)</title></rect><rect x="462" y="199.691" width="6" height="0.308547" stroke="black" stroke-width="1" fill="blue" tooltip="enable"><title>(3.04637,5)</title></rect><rect x="468" y="199.753" width="6" height="0.246837" stroke="black" stroke-width="1" fill="blue" tooltip="enable"><title>(3.08593,4)</title></rect><rect x="474" y="199.568" width="6" height="0.431965" stroke="black" stroke-width="1" fill="blue" tooltip="enable"><title>(3.1255,7)</title></rect><rect x="480" y="199.753" width="6" height="0.246837" stroke="black" stroke-width="1" fill="blue" tooltip="enable"><title>(3.16506,4)</title></rect><rect x="486" y="199.753" width="6" height="0.246837" stroke="black" stroke-width="1" fill="blue" tooltip="enable"><title>(3.20462,4)</title></rect><rect x="492" y="199.815" width="6" height="0.185128" stroke="black" stroke-width="1" fill="blue" tooltip="enable"><title>(3.24419,3)</title></rect><rect x="498" y="199.753" width="6" height="0.246837" stroke="black" stroke-width="1" fill="blue" tooltip="enable"><title>(3.28375,4)</title></rect><rect x="504" y="199.877" width="6" height="0.123419" stroke="black" stroke-width="1" fill="blue" tooltip="enable"><title>(3.32331,2)</title></rect><rect x="510" y="200" width="6" height="0" stroke="black" stroke-width="1" fill="blue" tooltip="enable"><title>(3.36288,0)</title></rect><rect x="516" y="199.815" width="6" height="0.185128" stroke="black" stroke-width="1" fill="blue" tooltip="enable"><title>(3.40244,3)</title></rect><rect x="522" y="199.877" width="6" height="0.123419" stroke="black" stroke-width="1" fill="blue" tooltip="enable"><title>(3.442,2)</title></rect><rect x="528" y="199.877" width="6" height="0.123419" stroke="black" stroke-width="1" fill="blue" tooltip="enable"><title>(3.48156,2)</title></rect><rect x="534" y="199.753" width="6" height="0.246837" stroke="black" stroke-width="1" fill="blue" tooltip="enable"><title>(3.52113,4)</title></rect><rect x="540" y="199.938" width="6" height="0.0617093" stroke="black" stroke-width="1" fill="blue" tooltip="enable"><title>(3.56069,1)</title></rect><rect x="546" y="199.938" width="6" height="0.0617093" stroke="black" stroke-width="1" fill="blue" tooltip="enable"><title>(3.60025,1)</title></rect><rect x="552" y="200" width="6" height="0" stroke="black" stroke-width="1" fill="blue" tooltip="enable"><title>(3.63982,0)</title></rect><rect x="558" y="199.938" width="6" height="0.0617093" stroke="black" stroke-width="1" fill="blue" tooltip="enable"><title>(3.67938,1)</title></rect><rect x="564" y="200" width="6" height="0" stroke="black" stroke-width="1" fill="blue" tooltip="enable"><title>(3.71894,0)</title></rect><rect x="570" y="199.938" width="6" height="0.0617093" stroke="black" stroke-width="1" fill="blue" tooltip="enable"><title>(3.75851,1)</title></rect><rect x="576" y="200" width="6" height="0" stroke="black" stroke-width="1" fill="blue" tooltip="enable"><title>(3.79807,0)</title></rect><rect x="582" y="200" width="6" height="0" stroke="black" stroke-width="1" fill="blue" tooltip="enable"><title>(3.83763,0)</title></rect><rect x="588" y="200" width="6" height="0" stroke="black" stroke-width="1" fill="blue" tooltip="enable"><title>(3.8772,0)</title></rect><rect x="594" y="199.877" width="6" height="0.123419" stroke="black" stroke-width="1" fill="blue" tooltip="enable"><title>(3.91676,2)</title></rect><text x="30" y="240" font-size="20" fill="black">0</text>
<text x="600" y="240" font-size="20" fill="black">3.95632</text>
<polyline points="0,220,600,220" stroke="black" stroke-width="1" fill="none"/>
<text x="720" y="20" font-size="20" fill="black">3241</text>
<text x="720" y="200" font-size="20" fill="black">0</text>
<polyline points="660,0,660,200" stroke="black" stroke-width="1" fill="none"/>
</svg>