<?xml version="1.0" standalone="yes"?>
<!-- SVG graphic -->
<svg xmlns='http://www.w3.org/2000/svg' xmlns:xlink='http://www.w3.org/1999/xlink'
 version="1.1">
<rect x="0" y="0" width="6" height="200" stroke="black" stroke-width="1" fill="blue" tooltip="enable"><title>(0,3157)</title></rect><rect x="6" y="45.7396" width="6" height="154.26" stroke="black" stroke-width="1" fill="blue" tooltip="enable"><title>(0.038902,2435)</title></rect><rect x="12" y="58.79" width="6" height="141.21" stroke="black" stroke-width="1" fill="blue" tooltip="enable"><title>(0.0778041,2229)</title></rect><rect x="18" y="68.5461" width="6" height="131.454" stroke="black" stroke-width="1" fill="blue" tooltip="enable"><title>(0.116706,2075)</title></rect><rect x="24" y="75.1346" width="6" height="124.865" stroke="black" stroke-width="1" fill="blue" tooltip="enable"><title>(0.155608,1971)</title></rect><rect x="30" y="84.574" width="6" height="115.426" stroke="black" stroke-width="1" fill="blue" tooltip="enable"><title>(0.19451,1822)</title></rect><rect x="36" y="86.8546" width="6" height="113.145" stroke="black" stroke-width="1" fill="blue" tooltip="enable"><title>(0.233412,1786)</title></rect><rect x="42" y="97.4976" width="6" height="102.502" stroke="black" stroke-width="1" fill="blue" tooltip="enable"><title>(0.272314,1618)</title></rect><rect x="48" y="104.213" width="6" height="95.7871" stroke="black" stroke-width="1" fill="blue" tooltip="enable"><title>(0.311216,1512)</title></rect><rect x="54" y="108.964" width="6" height="91.0358" stroke="black" stroke-width="1" fill="blue" tooltip="enable"><title>(0.350118,1437)</title></rect><rect x="60" y="110.675" width="6" height="89.3253" stroke="black" stroke-width="1" fill="blue" tooltip="enable"><title>(0.38902,1410)</title></rect><rect x="66" y="119.354" width="6" height="80.6462" stroke="black" stroke-width="1" fill="blue" tooltip="enable"><title>(0.427922,1273)</title></rect><rect x="72" y="125.562" width="6" height="74.4378" stroke="black" stroke-width="1" fill="blue" tooltip="enable"><title>(0.466824,1175)</title></rect><rect x="78" y="134.051" width="6" height="65.9487" stroke="black" stroke-width="1" fill="blue" tooltip="enable"><title>(0.505726,1041)</title></rect><rect x="84" y="141.463" width="6" height="58.5366" stroke="black" stroke-width="1" fill="blue" tooltip="enable"><title>(0.544628,924)</title></rect><rect x="90" y="140.386" width="6" height="59.6136" stroke="black" stroke-width="1" fill="blue" tooltip="enable"><title>(0.58353,941)</title></rect><rect x="96" y="146.595" width="6" height="53.4051" stroke="black" stroke-width="1" fill="blue" tooltip="enable"><title>(0.622433,843)</title></rect><rect x="102" y="148.305" width="6" height="51.6946" stroke="black" stroke-width="1" fill="blue" tooltip="enable"><title>(0.661335,816)</title></rect><rect x="108" y="153.817" width="6" height="46.1831" stroke="black" stroke-width="1" fill="blue" tooltip="enable"><title>(0.700237,729)</title></rect><rect x="114" y="158.442" width="6" height="41.5584" stroke="black" stroke-width="1" fill="blue" tooltip="enable"><title>(0.739139,656)</title></rect><rect x="120" y="164.27" width="6" height="35.7301" stroke="black" stroke-width="1" fill="blue" tooltip="enable"><title>(0.778041,564)</title></rect><rect x="126" y="165.41" width="6" height="34.5898" stroke="black" stroke-width="1" fill="blue" tooltip="enable"><title>(0.816943,546)</title></rect><rect x="132" y="166.36" width="6" height="33.6395" stroke="black" stroke-width="1" fill="blue" tooltip="enable"><title>(0.855845,531)</title></rect><rect x="138" y="170.352" width="6" height="29.6484" stroke="black" stroke-width="1" fill="blue" tooltip="enable"><title>(0.894747,468)</title></rect><rect x="144" y="169.465" width="6" height="30.5353" stroke="black" stroke-width="1" fill="blue" tooltip="enable"><title>(0.933649,482)</title></rect><rect x="150" y="173.202" width="6" height="26.7976" stroke="black" stroke-width="1" fill="blue" tooltip="enable"><title>(0.972551,423)</title></rect><rect x="156" y="173.519" width="6" height="26.4808" stroke="black" stroke-width="1" fill="blue" tooltip="enable"><title>(1.01145,418)</title></rect><rect x="162" y="176.243" width="6" height="23.7567" stroke="black" stroke-width="1" fill="blue" tooltip="enable"><title>(1.05035,375)</title></rect><rect x="168" y="177.954" width="6" height="22.0462" stroke="black" stroke-width="1" fill="blue" tooltip="enable"><title>(1.08926,348)</title></rect><rect x="174" y="178.207" width="6" height="21.7928" stroke="black" stroke-width="1" fill="blue" tooltip="enable"><title>(1.12816,344)</title></rect><rect x="180" y="181.058" width="6" height="18.942" stroke="black" stroke-width="1" fill="blue" tooltip="enable"><title>(1.16706,299)</title></rect><rect x="186" y="181.311" width="6" height="18.6886" stroke="black" stroke-width="1" fill="blue" tooltip="enable"><title>(1.20596,295)</title></rect><rect x="192" y="183.592" width="6" height="16.408" stroke="black" stroke-width="1" fill="blue" tooltip="enable"><title>(1.24487,259)</title></rect><rect x="198" y="183.339" width="6" height="16.6614" stroke="black" stroke-width="1" fill="blue" tooltip="enable"><title>(1.28377,263)</title></rect><rect x="204" y="183.402" width="6" height="16.598" stroke="black" stroke-width="1" fill="blue" tooltip="enable"><title>(1.32267,262)</title></rect><rect x="210" y="185.746" width="6" height="14.254" stroke="black" stroke-width="1" fill="blue" tooltip="enable"><title>(1.36157,225)</title></rect><rect x="216" y="187.583" width="6" height="12.4169" stroke="black" stroke-width="1" fill="blue" tooltip="enable"><title>(1.40047,196)</title></rect><rect x="222" y="187.076" width="6" height="12.9237" stroke="black" stroke-width="1" fill="blue" tooltip="enable"><title>(1.43938,204)</title></rect><rect x="228" y="189.04" width="6" height="10.9598" stroke="black" stroke-width="1" fill="blue" tooltip="enable"><title>(1.47828,173)</title></rect><rect x="234" y="189.547" width="6" height="10.453" stroke="black" stroke-width="1" fill="blue" tooltip="enable"><title>(1.51718,165)</title></rect><rect x="240" y="189.99" width="6" height="10.0095" stroke="black" stroke-width="1" fill="blue" tooltip="enable"><title>(1.55608,158)</title></rect><rect x="246" y="191.194" width="6" height="8.80583" stroke="black" stroke-width="1" fill="blue" tooltip="enable"><title>(1.59498,139)</title></rect><rect x="252" y="191.131" width="6" height="8.86918" stroke="black" stroke-width="1" fill="blue" tooltip="enable"><title>(1.63389,140)</title></rect><rect x="258" y="192.841" width="6" height="7.15869" stroke="black" stroke-width="1" fill="blue" tooltip="enable"><title>(1.67279,113)</title></rect><rect x="264" y="192.208" width="6" height="7.79221" stroke="black" stroke-width="1" fill="blue" tooltip="enable"><title>(1.71169,123)</title></rect><rect x="270" y="192.461" width="6" height="7.5388" stroke="black" stroke-width="1" fill="blue" tooltip="enable"><title>(1.75059,119)</title></rect><rect x="276" y="193.792" width="6" height="6.20843" stroke="black" stroke-width="1" fill="blue" tooltip="enable"><title>(1.78949,98)</title></rect><rect x="282" y="193.348" width="6" height="6.65188" stroke="black" stroke-width="1" fill="blue" tooltip="enable"><title>(1.8284,105)</title></rect><rect x="288" y="194.172" width="6" height="5.82832" stroke="black" stroke-width="1" fill="blue" tooltip="enable"><title>(1.8673,92)</title></rect><rect x="294" y="195.312" width="6" height="4.68799" stroke="black" stroke-width="1" fill="blue" tooltip="enable"><title>(1.9062,74)</title></rect><rect x="300" y="195.185" width="6" height="4.8147" stroke="black" stroke-width="1" fill="blue" tooltip="enable"><title>(1.9451,76)</title></rect><rect x="306" y="196.579" width="6" height="3.42097" stroke="black" stroke-width="1" fill="blue" tooltip="enable"><title>(1.984,54)</title></rect><rect x="312" y="196.642" width="6" height="3.35762" stroke="black" stroke-width="1" fill="blue" tooltip="enable"><title>(2.02291,53)</title></rect><rect x="318" y="197.022" width="6" height="2.97751" stroke="black" stroke-width="1" fill="blue" tooltip="enable"><title>(2.06181,47)</title></rect><rect x="324" y="196.832" width="6" height="3.16756" stroke="black" stroke-width="1" fill="blue" tooltip="enable"><title>(2.10071,50)</title></rect><rect x="330" y="197.846" width="6" height="2.15394" stroke="black" stroke-width="1" fill="blue" tooltip="enable"><title>(2.13961,34)</title></rect><rect x="336" y="197.783" width="6" height="2.21729" stroke="black" stroke-width="1" fill="blue" tooltip="enable"><title>(2.17851,35)</title></rect><rect x="342" y="197.846" width="6" height="2.15394" stroke="black" stroke-width="1" fill="blue" tooltip="enable"><title>(2.21742,34)</title></rect><rect x="348" y="197.403" width="6" height="2.5974" stroke="black" stroke-width="1" fill="blue" tooltip="enable"><title>(2.25632,41)</title></rect><rect x="354" y="197.783" width="6" height="2.21729" stroke="black" stroke-width="1" fill="blue" tooltip="enable"><title>(2.29522,35)</title></rect><rect x="360" y="198.036" width="6" height="1.96389" stroke="black" stroke-width="1" fill="blue" tooltip="enable"><title>(2.33412,31)</title></rect><rect x="366" y="198.67" width="6" height="1.33038" stroke="black" stroke-width="1" fill="blue" tooltip="enable"><title>(2.37302,21)</title></rect><rect x="372" y="198.733" width="6" height="1.26703" stroke="black" stroke-width="1" fill="blue" tooltip="enable"><title>(2.41193,20)</title></rect><rect x="378" y="198.163" width="6" height="1.83719" stroke="black" stroke-width="1" fill="blue" tooltip="enable"><title>(2.45083,29)</title></rect><rect x="384" y="198.606" width="6" height="1.39373" stroke="black" stroke-width="1" fill="blue" tooltip="enable"><title>(2.48973,22)</title></rect><rect x="390" y="198.733" width="6" height="1.26703" stroke="black" stroke-width="1" fill="blue" tooltip="enable"><title>(2.52863,20)</title></rect><rect x="396" y="198.986" width="6" height="1.01362" stroke="black" stroke-width="1" fill="blue" tooltip="enable"><title>(2.56753,16)</title></rect><rect x="402" y="198.923" width="6" height="1.07697" stroke="black" stroke-width="1" fill="blue" tooltip="enable"><title>(2.60644,17)</title></rect><rect x="408" y="198.67" width="6" height="1.33038" stroke="black" stroke-width="1" fill="blue" tooltip="enable"><title>(2.64534,21)</title></rect><rect x="414" y="199.303" width="6" height="0.696864" stroke="black" stroke-width="1" fill="blue" tooltip="enable"><title>(2.68424,11)</title></rect><rect x="420" y="199.62" width="6" height="0.380108" stroke="black" stroke-width="1" fill="blue" tooltip="enable"><title>(2.72314,6)</title></rect><rect x="426" y="199.43" width="6" height="0.570162" stroke="black" stroke-width="1" fill="blue" tooltip="enable"><title>(2.76204,9)</title></rect><rect x="432" y="199.366" width="6" height="0.633513" stroke="black" stroke-width="1" fill="blue" tooltip="enable"><title>(2.80095,10)</title></rect><rect x="438" y="199.62" width="6" height="0.380108" stroke="black" stroke-width="1" fill="blue" tooltip="enable"><title>(2.83985,6)</title></rect><rect x="444" y="199.303" width="6" height="0.696864" stroke="black" stroke-width="1" fill="blue" tooltip="enable"><title>(2.87875,11)</title></rect><rect x="450" y="199.493" width="6" height="0.50681" stroke="black" stroke-width="1" fill="blue" tooltip="enable"><title>(2.91765,8)</title></rect><rect x="456" y="199.683" width="6" height="0.316756" stroke="black" stroke-width="1" fill="blue" tooltip="enable"><title>(2.95655,5)</title></rect><rect x="462" y="199.557" width="6" height="0.443459" stroke="black" stroke-width="1" fill="blue" tooltip="enable"><title>(2.99546,7)</title></rect><rect x="468" y="199.24" width="6" height="0.760215" stroke="black" stroke-width="1" fill="blue" tooltip="enable"><title>(3.03436,12)</title></rect><rect x="474" y="199.747" width="6" height="0.253405" stroke="black" stroke-width="1" fill="blue" tooltip="enable"><title>(3.07326,4)</title></rect><rect x="480" y="199.747" width="6" height="0.253405" stroke="black" stroke-width="1" fill="blue" tooltip="enable"><title>(3.11216,4)</title></rect><rect x="486" y="199.62" width="6" height="0.380108" stroke="black" stroke-width="1" fill="blue" tooltip="enable"><title>(3.15106,6)</title></rect><rect x="492" y="199.873" width="6" height="0.126703" stroke="black" stroke-width="1" fill="blue" tooltip="enable"><title>(3.18997,2)</title></rect><rect x="498" y="199.683" width="6" height="0.316756" stroke="black" stroke-width="1" fill="blue" tooltip="enable"><title>(3.22887,5)</title></rect><rect x="504" y="199.683" width="6" height="0.316756" stroke="black" stroke-width="1" fill="blue" tooltip="enable"><title>(3.26777,5)</title></rect><rect x="510" y="199.683" width="6" height="0.316756" stroke="black" stroke-width="1" fill="blue" tooltip="enable"><title>(3.30667,5)</title></rect><rect x="516" y="199.747" width="6" height="0.253405" stroke="black" stroke-width="1" fill="blue" tooltip="enable"><title>(3.34557,4)</title></rect><rect x="522" y="200" width="6" height="0" stroke="black" stroke-width="1" fill="blue" tooltip="enable"><title>(3.38448,0)</title></rect><rect x="528" y="200" width="6" height="0" stroke="black" stroke-width="1" fill="blue" tooltip="enable"><title>(3.42338,0)</title></rect><rect x="534" y="199.937" width="6" height="0.0633513" stroke="black" stroke-width="1" fill="blue" tooltip="enable"><title>(3.46228,1)</title></rect><rect x="540" y="199.937" width="6" height="0.0633513" stroke="black" stroke-width="1" fill="blue" tooltip="enable"><title>(3.50118,1)</title></rect><rect x="546" y="199.81" width="6" height="0.190054" stroke="black" stroke-width="1" fill="blue" tooltip="enable"><title>(3.54009,3)</title></rect><rect x="552" y="199.873" width="6" height="0.126703" stroke="black" stroke-width="1" fill="blue" tooltip="enable"><title>(3.57899,2)</title></rect><rect x="558" y="199.81" width="6" height="0.190054" stroke="black" stroke-width="1" fill="blue" tooltip="enable"><title>(3.61789,3)</title></rect><rect x="564" y="199.937" width="6" height="0.0633513" stroke="black" stroke-width="1" fill="blue" tooltip="enable"><title>(3.65679,1)</title></rect><rect x="570" y="199.937" width="6" height="0.0633513" stroke="black" stroke-width="1" fill="blue" tooltip="enable"><title>(3.69569,1)</title></rect><rect x="576" y="200" width="6" height="0" stroke="black" stroke-width="1" fill="blue" tooltip="enable"><title>(3.7346,0)</title></rect><rect x="582" y="199.873" width="6" height="0.126703" stroke="black" stroke-width="1" fill="blue" tooltip="enable"><title>(3.7735,2)</title></rect><rect x="588" y="200" width="6" height="0" stroke="black" stroke-width="1" fill="blue" tooltip="enable"><title>(3.8124,0)</title></rect><rect x="594" y="200" width="6" height="0" stroke="black" stroke-width="1" fill="blue" tooltip="enable"><title>(3.8513,0)</title></rect><text x="30" y="240" font-size="20" fill="black">0</text>
<text x="600" y="240" font-size="20" fill="black">3.8902</text>
<polyline points="0,220,600,220" stroke="black" stroke-width="1" fill="none"/>
<text x="720" y="20" font-size="20" fill="black">3157</text>
<text x="720" y="200" font-size="20" fill="black">0</text>
<polyline points="660,0,660,200" stroke="black" stroke-width="1" fill="none"/>
</svg>